<?xml version="1.0" encoding="UTF-8"?>
<svg width="137px" height="121px" viewBox="0 0 137 121" version="1.1" xmlns="http://www.w3.org/2000/svg" xmlns:xlink="http://www.w3.org/1999/xlink">
    <title>logo</title>
    <defs>
        <linearGradient x1="50%" y1="0%" x2="50%" y2="100%" id="linearGradient-1">
            <stop stop-color="#65B687" offset="0%"></stop>
            <stop stop-color="#65B687" offset="100%"></stop>
        </linearGradient>
    </defs>
    <g id="页面-1" stroke="none" stroke-width="1" fill="none" fill-rule="evenodd">
        <g id="编组" transform="translate(0.614194, 0.000000)">
            <path d="M4.76825426,36.39178 L64.6796577,116.702201 C66.0006013,118.472908 68.5068793,118.837514 70.2775862,117.51657 C70.586905,117.285819 70.8612037,117.01152 71.0919548,116.702201 L131.003358,36.39178 C132.324302,34.621073 131.959697,32.1147951 130.18899,30.7938515 C129.498089,30.2784412 128.659179,30 127.79721,30 L104.122175,30 C103.808512,30 103.513022,30.1471709 103.324045,30.3975147 L68.6852185,76.2845819 C68.3524751,76.7253769 67.7253982,76.81297 67.2846032,76.4802265 C67.2102252,76.4240807 67.1440605,76.3578138 67.0880296,76.2833492 L32.5621193,30.3987473 C32.3732021,30.1476782 32.0772663,30 31.7630603,30 L7.97440281,30 C5.76526381,30 3.97440281,31.790861 3.97440281,34 C3.97440281,34.8619694 4.25284397,35.7008795 4.76825426,36.39178 Z" id="路径" fill="url(#linearGradient-1)"></path>
            <circle id="椭圆形" fill="#39485C" cx="67.3858063" cy="15" r="15"></circle>
        </g>
    </g>
</svg>
